<svg height="200px" width="200px" version="1.1" id="Layer_1" xmlns="http://www.w3.org/2000/svg" xmlns:xlink="http://www.w3.org/1999/xlink" viewBox="0 0 512 512" xml:space="preserve" fill="#000000"><g id="SVGRepo_bgCarrier" stroke-width="0"></g><g id="SVGRepo_tracerCarrier" stroke-linecap="round" stroke-linejoin="round"></g><g id="SVGRepo_iconCarrier"> <path style="fill:#981700;" d="M40.908,224.848h226.334v286.597H40.908V224.848L40.908,224.848z"></path> <path style="fill:#5B7F81;" d="M256.124,224.848h215.217v286.597H256.124V224.848L256.124,224.848z"></path> <path style="fill:#234848;" d="M312.492,335.463h102.476v120.578H312.492V335.463L312.492,335.463z"></path> <path style="fill:#C13421;" d="M363.73,224.848c-31.375,0-57.038-25.634-57.038-56.97v-16.672c0-1.095,0.036-2.184,0.092-3.262 h113.892c0.057,1.078,0.098,2.167,0.098,3.262v16.672C420.774,199.213,395.105,224.848,363.73,224.848L363.73,224.848 L363.73,224.848z"></path> <path style="fill:#FF4328;" d="M306.692,151.204c0-1.095,0.036-2.184,0.092-3.262h60.301c0.057,1.078,0.098,2.167,0.098,3.262 v16.672c0,21.677-12.288,40.62-30.247,50.242c-17.958-9.622-30.244-28.564-30.244-50.242L306.692,151.204L306.692,151.204z"></path> <path style="fill:#415E5C;" d="M121.858,111.392v9.349c0,13.686-11.211,24.878-24.908,24.878h-0.006 c-13.698,0-24.908-11.192-24.908-24.878v-9.349c0-13.686,11.211-24.877,24.908-24.877h0.006 C110.647,86.513,121.858,97.706,121.858,111.392z"></path> <path style="fill:#B76700;" d="M224.994,111.392v34.228h-49.822v-34.228c0-13.684,11.211-24.877,24.908-24.877h0.006 C213.785,86.513,224.994,97.707,224.994,111.392z"></path> <path d="M188.277,286.249c0,4.89-3.983,8.855-8.895,8.855H117.65c-4.913,0-8.895-3.965-8.895-8.855c0-4.89,3.981-8.855,8.895-8.855 h61.732C184.294,277.394,188.277,281.359,188.277,286.249z M423.861,335.463v120.578c0,4.912-3.983,8.895-8.895,8.895H312.492 c-4.912,0-8.895-3.983-8.895-8.895V335.463c0-4.912,3.983-8.895,8.895-8.895h102.474 C419.879,326.569,423.861,330.551,423.861,335.463z M406.072,344.358h-84.685v102.789h84.685V344.358z M312.492,295.104h2.05 c4.913,0,8.895-3.965,8.895-8.855s-3.981-8.855-8.895-8.855h-2.05c-4.912,0-8.895,3.965-8.895,8.855S307.58,295.104,312.492,295.104 z M412.915,295.104h2.052c4.912,0,8.895-3.965,8.895-8.855s-3.983-8.855-8.895-8.855h-2.052c-4.912,0-8.895,3.965-8.895,8.855 S408.002,295.104,412.915,295.104z M361.677,295.104h2.052c4.913,0,8.895-3.965,8.895-8.855s-3.981-8.855-8.895-8.855h-2.052 c-4.912,0-8.895,3.965-8.895,8.855S356.764,295.104,361.677,295.104z M31.805,11.172c0-4.89,3.983-8.855,8.895-8.855h56.249 c0.001,0,0.001,0,0.001,0c0.001,0,103.135,0,103.135,0h0.001h56.244c4.912,0,8.895,3.965,8.895,8.855s-3.983,8.855-8.895,8.855 h-47.35v58.788c14.338,3.913,24.908,17.031,24.908,32.577v34.228c0,4.912-3.983,8.895-8.895,8.895H175.17 c-4.912,0-8.895-3.983-8.895-8.895v-34.228c0-15.549,10.575-28.669,24.914-32.579V20.027h-85.346v58.788 c14.338,3.913,24.908,17.031,24.908,32.577v9.349c0,18.622-15.164,33.772-33.803,33.772h-0.006 c-18.639,0-33.802-15.15-33.802-33.772v-9.349c0-15.549,10.575-28.669,24.913-32.579V20.027H40.699 C35.787,20.027,31.805,16.062,31.805,11.172z M96.949,95.408c-8.835,0-16.018,7.17-16.018,15.983v9.349 c0,8.814,7.184,15.983,16.013,15.983h0.006c8.83,0,16.014-7.17,16.014-15.983v-9.349C112.964,102.578,105.781,95.408,96.949,95.408z M200.085,95.408c-8.836,0-16.019,7.17-16.019,15.983v25.333H216.1v-25.333C216.099,102.578,208.916,95.408,200.085,95.408z M381.878,87.175c-3.273,3.647-2.957,9.244,0.706,12.503c1.697,1.51,3.814,2.253,5.924,2.253c2.445,0,4.879-0.997,6.635-2.955 c17.805-19.834,6.635-39.87-1.52-54.5c-8.383-15.039-11.449-22.459-5.618-30.392c2.901-3.947,2.038-9.487-1.927-12.375 c-3.965-2.886-9.53-2.028-12.43,1.918c-13.16,17.906-3.412,35.392,4.421,49.442C387.441,69.88,390.409,77.672,381.878,87.175z M333.291,87.175c-3.273,3.646-2.959,9.244,0.705,12.503c1.697,1.51,3.815,2.253,5.924,2.253c2.444,0,4.879-0.997,6.635-2.954 c17.808-19.835,6.637-39.873-1.52-54.503c-8.384-15.039-11.45-22.458-5.621-30.391c2.9-3.947,2.037-9.487-1.928-12.374 c-3.964-2.886-9.53-2.027-12.43,1.919c-13.155,17.905-3.407,35.39,4.425,49.439C338.854,69.879,341.822,77.671,333.291,87.175z M503.939,502.59c0,4.89-3.983,8.855-8.895,8.855h-20.632c-0.958,0.354-1.99,0.556-3.072,0.556H40.908 c-1.082,0-2.114-0.202-3.072-0.556H16.955c-4.912,0-8.895-3.964-8.895-8.855c0-4.89,3.983-8.855,8.895-8.855h15.059V241.386H16.955 c-4.912,0-8.895-3.965-8.895-8.855c0-4.89,3.983-8.855,8.895-8.855h22.093c0.6-0.128,1.222-0.198,1.86-0.198h287.544 c-18.408-11.697-30.656-32.241-30.656-55.602v-16.673c0-1.165,0.033-2.385,0.105-3.728c0.248-4.724,4.15-8.43,8.882-8.43h113.893 c4.732,0,8.636,3.705,8.882,8.43c0.074,1.432,0.11,2.616,0.11,3.727v16.673c0,23.361-12.249,43.905-30.659,55.602h72.332 c0.638,0,1.26,0.07,1.86,0.198h21.843c4.912,0,8.895,3.965,8.895,8.855c0,4.89-3.983,8.855-8.895,8.855h-14.809v252.35h14.809 C499.956,493.735,503.939,497.7,503.939,502.59z M363.73,215.953c26.549,0,48.15-21.567,48.15-48.076v-11.041h-96.293v11.041 C315.586,194.386,337.184,215.953,363.73,215.953z M49.803,493.735h412.643V241.386H49.803V493.735z"></path> </g></svg>
