<svg height="200px" width="200px" version="1.1" id="Layer_1" xmlns="http://www.w3.org/2000/svg" xmlns:xlink="http://www.w3.org/1999/xlink" viewBox="0 0 511.997 511.997" xml:space="preserve" fill="#000000"><g id="SVGRepo_bgCarrier" stroke-width="0"></g><g id="SVGRepo_tracerCarrier" stroke-linecap="round" stroke-linejoin="round"></g><g id="SVGRepo_iconCarrier"> <path style="fill:#E6E6E6;" d="M373.823,333.539h-45.004v-17.71c0-12.068-9.781-21.851-21.847-21.851H205.02 c-12.066,0-21.848,9.782-21.848,21.851v17.71h-45.004c-36.944,0-67.001,29.958-67.001,66.784v92.394 c0,6.359,5.172,11.446,11.552,11.446h346.551c6.379,0,11.552-5.087,11.552-11.446v-92.394 C440.823,363.498,410.767,333.539,373.823,333.539z"></path> <g style="opacity:0.1;"> <path d="M114.934,492.717v-92.394c0-36.825,30.055-66.784,67.001-66.784h-43.767c-36.944,0-67.001,29.958-67.001,66.784v92.394 c0,6.359,5.172,11.446,11.552,11.446h43.767C120.106,504.163,114.934,499.077,114.934,492.717z"></path> </g> <g> <polygon style="fill:#294D73;" points="331.643,333.539 266.804,504.163 360.376,504.163 360.376,333.539 "></polygon> <polygon style="fill:#294D73;" points="180.348,333.539 151.615,333.539 151.615,504.163 245.187,504.163 "></polygon> </g> <path style="fill:#B3B3B3;" d="M263.832,501.042V354.22c0-4.328-3.509-7.837-7.837-7.837s-7.837,3.509-7.837,7.837v146.822 c0,1.111,0.234,2.164,0.65,3.121h14.374C263.598,503.206,263.832,502.152,263.832,501.042z"></path> <path style="fill:#EF645E;" d="M308.517,318.351c-3.42-1.977-7.636-1.977-11.057,0l-41.465,23.944l-41.466-23.944 c-3.42-1.977-7.637-1.977-11.057,0c-3.421,1.976-5.529,5.626-5.529,9.579v48.795c0,3.952,2.109,7.603,5.529,9.58 c3.42,1.975,7.636,1.975,11.057,0l41.466-23.946l41.466,23.947c3.42,1.975,7.637,1.975,11.057,0c3.421-1.977,5.53-5.628,5.53-9.58 v-48.795C314.047,323.978,311.938,320.328,308.517,318.351z"></path> <g> <ellipse style="fill:#FFE7CC;" cx="157.702" cy="204.643" rx="34.063" ry="33.952"></ellipse> <ellipse style="fill:#FFE7CC;" cx="354.289" cy="204.643" rx="34.063" ry="33.952"></ellipse> <path style="fill:#FFE7CC;" d="M366.008,215.029c0,52.798-54.787,95.599-107.756,95.599h-4.514 c-52.969,0-107.756-42.801-107.756-95.599v-65.233c0-52.798,42.94-95.599,95.909-95.599H270.1 c52.969,0,95.909,42.801,95.909,95.599v65.233H366.008z"></path> </g> <path style="opacity:0.1;enable-background:new ;" d="M178.673,215.029v-65.233c0-52.051,41.734-94.382,93.669-95.57 c-0.745-0.018-1.492-0.028-2.241-0.028h-28.209c-52.969,0-95.909,42.801-95.909,95.599v65.233 c0,52.798,54.788,95.599,107.756,95.599h4.514c4.696,0,9.404-0.343,14.088-0.993C224.179,302.954,178.673,263.146,178.673,215.029z"></path> <path style="fill:#C69C6D;" d="M165.313,175.363h5.295c46.906,0,95.021-28.621,115.785-69.297 c21.09,20.845,50.018,35.097,79.615,38.602v-41.233c0-52.798-42.939-95.599-95.909-95.599h-28.209 c-52.969,0-95.909,42.801-95.909,95.599v65.233c0,1.717,0.062,3.422,0.175,5.117C152.517,174.811,158.925,175.363,165.313,175.363z"></path> <path style="opacity:0.1;enable-background:new ;" d="M178.673,103.435c0-52.051,41.734-94.382,93.669-95.569 c-0.745-0.018-1.492-0.028-2.241-0.028h-28.209c-52.969,0-95.909,42.801-95.909,95.599v65.233c0,1.717,0.062,3.422,0.175,5.117 c6.36,1.026,12.769,1.578,19.156,1.578h5.294c2.716,0,5.435-0.107,8.152-0.295C178.703,147.974,178.673,103.435,178.673,103.435z"></path> <path d="M299.135,462.543c0,4.328,3.509,7.837,7.837,7.837h31.21c4.328,0,7.837-3.509,7.837-7.837s-3.509-7.837-7.837-7.837h-31.21 C302.644,454.706,299.135,458.215,299.135,462.543z"></path> <path d="M440.823,445.649c4.328,0,7.837-3.509,7.837-7.837v-37.49c0-41.146-33.572-74.62-74.837-74.62h-37.167v-9.872 c0-7.944-3.148-15.157-8.247-20.488c2.98-2.118,5.874-4.369,8.666-6.747c15.172-12.918,25.974-28.27,31.793-44.787 c15.936-5.916,27.321-21.235,27.321-39.166c0-16.001-9.067-29.921-22.343-36.938v-64.269C373.846,46.401,327.306,0,270.1,0h-28.209 c-34.602,0-66.805,17.111-86.139,45.773c-2.421,3.588-1.474,8.458,2.114,10.879c3.587,2.421,8.458,1.474,10.879-2.114 c16.416-24.337,43.761-38.865,73.145-38.865h28.209c48.564,0,88.072,39.37,88.072,87.761v32.079 c-24.546-4.781-48.305-17.265-66.27-35.021c-1.778-1.758-4.287-2.561-6.754-2.164c-2.467,0.397-4.598,1.948-5.734,4.174 c-9.366,18.349-25.393,34.948-45.128,46.737c-19.737,11.792-42.352,18.286-63.676,18.286h-5.294c-3.754,0-7.602-0.208-11.495-0.621 v-9.731h18.172c0.04,0,0.079-0.001,0.119-0.001c19.245-0.293,39.617-6.351,57.364-17.059c17.832-10.759,32.299-25.787,40.735-42.314 c1.968-3.855,0.438-8.575-3.417-10.543c-3.854-1.967-8.574-0.438-10.543,3.417c-14.761,28.918-50.214,50.287-84.319,50.828H153.82 v-10.339h17.957c0.047,0,0.094,0,0.141-0.001c13.902-0.25,28.888-4.58,42.197-12.192c3.756-2.149,5.06-6.937,2.911-10.693 c-2.149-3.757-6.937-5.061-10.693-2.911c-11.037,6.314-23.334,9.909-34.628,10.125h-17.883v-12.056 c0-9.172,1.412-18.204,4.194-26.844c1.327-4.119-0.936-8.535-5.056-9.862c-4.119-1.327-8.536,0.936-9.862,5.056 c-3.284,10.195-4.949,20.844-4.949,31.649v64.269c-13.275,7.016-22.342,20.938-22.342,36.937c0,17.93,11.384,33.249,27.32,39.165 c5.819,16.519,16.621,31.869,31.793,44.787c2.793,2.378,5.686,4.629,8.667,6.747c-5.1,5.332-8.248,12.545-8.248,20.488v9.872 h-37.167c-41.265,0-74.838,33.474-74.838,74.62v92.395c0,10.633,8.698,19.283,19.389,19.283h346.551 c10.69,0,19.389-8.65,19.389-19.283v-24.6c0-4.328-3.509-7.837-7.837-7.837c-4.328,0-7.837,3.509-7.837,7.837v24.603 c0,2.024-1.632,3.609-3.716,3.609h-61.059V341.375h5.61c32.623,0,59.163,26.443,59.163,58.947v37.49 C432.986,442.14,436.495,445.649,440.823,445.649z M373.845,215.029v-27.741c4.139,4.617,6.67,10.691,6.67,17.354 c0,6.834-2.658,13.051-6.988,17.709C373.735,219.921,373.845,217.479,373.845,215.029z M131.476,204.641 c0-6.662,2.53-12.736,6.669-17.353v27.741c0,2.45,0.11,4.891,0.319,7.321C134.134,217.691,131.476,211.474,131.476,204.641z M153.818,215.029v-32.392c3.88,0.362,7.726,0.563,11.495,0.563h5.295c46.673,0,93.617-26.181,117.736-64.707 c19.802,16.914,44.521,28.574,69.827,32.93v63.606c0,22.58-11.101,44.469-31.258,61.631c-19.503,16.605-44.528,26.13-68.66,26.13 h-4.514c-24.132,0-49.158-9.524-68.661-26.13C164.919,259.497,153.818,237.609,153.818,215.029z M284.918,344.491h-17.053 l33.515-19.354c0.977-0.564,2.242-0.563,3.217-0.001c0.995,0.575,1.612,1.646,1.612,2.794v48.794c0,1.148-0.618,2.219-1.611,2.793 c-0.977,0.564-2.244,0.562-3.219,0l-33.512-19.354h17.05c4.328,0,7.837-3.509,7.837-7.837 C292.755,347.999,289.246,344.491,284.918,344.491z M227.073,360.165h17.05l-33.51,19.353c-0.977,0.563-2.245,0.563-3.218,0.001 c-0.995-0.575-1.612-1.646-1.612-2.794v-48.794c0-1.148,0.618-2.219,1.612-2.794c0.976-0.563,2.24-0.564,3.218,0.001l33.514,19.354 h-17.053c-4.328,0-7.837,3.509-7.837,7.837C219.236,356.656,222.745,360.165,227.073,360.165z M199.553,311.566 c-4.123,2.382-7.132,6.222-8.544,10.646v-6.381c0-4.988,2.628-9.364,6.563-11.848c3.501,1.863,7.082,3.554,10.719,5.075 C205.223,309.173,202.215,310.027,199.553,311.566z M222.906,314.138c10.157,2.834,20.558,4.325,30.833,4.325h4.514 c10.276,0,20.676-1.492,30.834-4.326l-33.091,19.109L222.906,314.138z M303.7,309.056c3.636-1.521,7.217-3.211,10.719-5.075 c3.935,2.484,6.563,6.86,6.563,11.848v6.381c-1.413-4.424-4.422-8.264-8.545-10.646C309.775,310.027,306.768,309.173,303.7,309.056z M143.779,496.327H82.72c-2.084,0-3.716-1.585-3.716-3.609v-92.395c0-32.504,26.54-58.947,59.164-58.947h5.61V496.327z M159.452,496.327V341.375h15.492l58.882,154.951H159.452z M250.592,496.327l-38.377-100.99c2.186-0.378,4.302-1.13,6.235-2.245 l37.545-21.684l37.547,21.685c1.932,1.115,4.047,1.867,6.233,2.244l-38.377,100.99H250.592z M352.54,496.327h-74.374l58.883-154.951 h15.492v154.951H352.54z"></path> <path d="M209.734,227.565c4.328,0,7.837-3.509,7.837-7.837v-10.306c0-4.328-3.509-7.837-7.837-7.837 c-4.328,0-7.837,3.509-7.837,7.837v10.306C201.897,224.056,205.404,227.565,209.734,227.565z"></path> <path d="M302.257,227.565c4.328,0,7.837-3.509,7.837-7.837v-10.306c0-4.328-3.509-7.837-7.837-7.837 c-4.328,0-7.837,3.509-7.837,7.837v10.306C294.42,224.056,297.929,227.565,302.257,227.565z"></path> <path d="M255.995,275.331L255.995,275.331c8.862,0,17.194-3.451,23.459-9.719c3.06-3.06,3.059-8.023-0.001-11.082 c-3.06-3.061-8.023-3.061-11.082,0.001c-3.306,3.305-7.701,5.126-12.376,5.126c-4.675,0-9.07-1.821-12.376-5.127 c-3.059-3.061-8.022-3.061-11.083,0c-3.061,3.061-3.061,8.022,0,11.082C238.803,271.879,247.134,275.331,255.995,275.331z"></path> </g></svg>
