<svg xmlns="http://www.w3.org/2000/svg" width="150" height="150" viewBox="0 0 150 150" fill="none">
  <path d="M116.631 112.758H43.4278C40.6717 112.758 38.4375 114.992 38.4375 117.747C38.4375 120.503 40.6717 122.737 43.4278 122.737H116.631C119.387 122.737 121.621 120.503 121.621 117.747C121.621 114.992 119.387 112.758 116.631 112.758Z" fill="#569ECE"/>
  <path d="M125.579 60.7109H34.4786C31.7225 60.7109 29.4883 62.9449 29.4883 65.7005C29.4883 68.4562 31.7225 70.6901 34.4786 70.6901H125.579C128.335 70.6901 130.569 68.4562 130.569 65.7005C130.569 62.9449 128.335 60.7109 125.579 60.7109Z" fill="#422F54"/>
  <path d="M125.579 60.7109H34.4786C31.7225 60.7109 29.4883 62.9449 29.4883 65.7005C29.4883 68.4562 31.7225 70.6901 34.4786 70.6901H125.579C128.335 70.6901 130.569 68.4562 130.569 65.7005C130.569 62.9449 128.335 60.7109 125.579 60.7109Z" fill="#8FBCDA"/>
  <path d="M115.64 112.758H44.419L34.9648 70.6895H125.095L115.64 112.758Z" fill="#4D81F1"/>
  <path d="M109.049 80.0204C109.276 79.1301 108.739 78.2239 107.85 77.9962C106.96 77.7685 106.054 78.3057 105.826 79.196L98.7193 106.975C98.4915 107.865 99.0283 108.771 99.9182 108.999C100.808 109.227 101.714 108.69 101.942 107.799L109.049 80.0204Z" fill="white"/>
  <path d="M98.3063 80.0204C98.5341 79.1301 97.9973 78.2239 97.1074 77.9962C96.2175 77.7685 95.3115 78.3057 95.0837 79.196L87.9771 106.975C87.7494 107.865 88.2861 108.771 89.176 108.999C90.0659 109.227 90.972 108.69 91.1997 107.799L98.3063 80.0204Z" fill="white"/>
  <path d="M87.5602 80.0204C87.788 79.1301 87.2512 78.2239 86.3613 77.9962C85.4714 77.7685 84.5654 78.3057 84.3376 79.196L77.231 106.975C77.0033 107.865 77.54 108.771 78.4299 108.999C79.3198 109.227 80.2259 108.69 80.4536 107.799L87.5602 80.0204Z" fill="white"/>
  <path d="M76.8141 80.0204C77.0419 79.1301 76.5051 78.2239 75.6152 77.9962C74.7253 77.7685 73.8193 78.3057 73.5915 79.196L66.4849 106.975C66.2572 107.865 66.7939 108.771 67.6838 108.999C68.5737 109.227 69.4798 108.69 69.7075 107.799L76.8141 80.0204Z" fill="white"/>
  <path d="M66.0719 80.0223C66.2997 79.1321 65.7629 78.2258 64.873 77.9982C63.9831 77.7705 63.0771 78.3076 62.8493 79.1979L55.7427 106.977C55.515 107.867 56.0518 108.773 56.9417 109.001C57.8315 109.229 58.7376 108.692 58.9653 107.801L66.0719 80.0223Z" fill="white"/>
  <path d="M86.7716 69.5198C88.9614 68.2839 89.7348 65.5072 88.4991 63.3178C87.2634 61.1284 84.4866 60.3554 82.2968 61.5913L15.5192 99.28C13.3294 100.516 12.556 103.293 13.7917 105.482C15.0274 107.671 17.8042 108.444 19.994 107.209L86.7716 69.5198Z" fill="#569ECE"/>
  <path d="M84.0919 68.4202C85.5946 68.4202 86.8128 67.202 86.8128 65.6993C86.8128 64.1967 85.5946 62.9785 84.0919 62.9785C82.5893 62.9785 81.3711 64.1967 81.3711 65.6993C81.3711 67.202 82.5893 68.4202 84.0919 68.4202Z" fill="white"/>
  <path d="M126.741 97.443C125.134 95.9726 123.432 94.6086 121.648 93.3597C120.12 92.3013 118.153 91.0638 116.27 92.0499C115.864 92.2548 115.519 92.5639 115.272 92.9456C115.024 93.3273 114.883 93.7678 114.861 94.2222C114.827 95.1735 115.239 96.0847 115.732 96.8749C116.843 98.6513 118.154 100.329 119.482 101.943C122.399 105.497 125.768 108.54 129.313 111.444C131.713 113.411 134.768 111.75 135.613 109.392C136.029 108.218 135.904 106.871 134.875 105.712C132.315 102.811 129.599 100.051 126.741 97.443Z" fill="#8FBCDA"/>
  <path d="M126.962 83.3629C125.464 83.0135 123.944 82.7625 122.413 82.6115C121.105 82.4893 119.467 82.4074 118.649 83.6657C118.47 83.9324 118.364 84.2421 118.344 84.5631C118.323 84.8841 118.388 85.2047 118.533 85.4921C118.841 86.0893 119.409 86.5074 119.987 86.8227C121.3 87.5195 122.659 88.1283 124.053 88.6449C127.077 89.824 130.208 90.531 133.394 91.0921C135.553 91.4727 136.859 89.3921 136.563 87.649C136.492 87.186 136.292 86.7521 135.987 86.3967C135.681 86.0413 135.282 85.7784 134.835 85.6379C132.254 84.7385 129.625 83.979 126.962 83.3629Z" fill="#8FBCDA"/>
  <path opacity="0.7" d="M128.069 18.9741L130.406 33.1852C130.66 34.7298 131.396 36.1547 132.507 37.2568C133.619 38.3589 135.05 39.0819 136.597 39.3227L145.877 40.7713C147.794 41.0699 147.812 43.8269 145.899 44.1477L136.152 45.7977C134.609 46.0582 133.187 46.7993 132.09 47.9154C130.993 49.0315 130.276 50.4655 130.041 52.013L128.034 65.2463C127.747 67.1463 125.027 67.2005 124.663 65.313L121.886 50.8685C121.587 49.3233 120.806 47.9126 119.655 46.8394C118.504 45.7662 117.042 45.0859 115.48 44.8963L109.091 44.1241C107.083 43.888 107.083 40.963 109.099 40.7297L115.233 40.0199C116.794 39.8392 118.258 39.1682 119.414 38.1034C120.57 37.0386 121.358 35.6347 121.666 34.0935L124.704 18.9158C125.077 17.0505 127.761 17.0963 128.069 18.9741Z" fill="#50C62C"/>
  <path d="M101.455 43.0844L102.695 50.6246C102.828 51.4455 103.218 52.2031 103.808 52.7893C104.398 53.3755 105.158 53.7602 105.98 53.8885L110.905 54.6566C111.921 54.8149 111.931 56.2774 110.916 56.4482L105.743 57.3232C104.926 57.4616 104.172 57.854 103.59 58.4449C103.008 59.0358 102.627 59.7951 102.5 60.6149L101.438 67.6385C101.284 68.6469 99.8421 68.6746 99.649 67.6732L98.1713 60.0121C98.0137 59.1919 97.5996 58.4429 96.9887 57.8733C96.3779 57.3036 95.6019 56.9428 94.7727 56.8427L91.3893 56.4316C90.3213 56.3024 90.3254 54.7524 91.3893 54.626L94.6435 54.2482C95.4707 54.1524 96.2463 53.7973 96.8593 53.2337C97.4723 52.6701 97.8912 51.927 98.056 51.1107L99.6685 43.0552C99.8615 42.0635 101.291 42.083 101.455 43.0844Z" fill="#50C62C"/>
  <path opacity="0.9" d="M109.271 13.4715L110.021 18.0326C110.103 18.5284 110.339 18.9856 110.696 19.3394C111.053 19.6932 111.512 19.9256 112.008 20.0035L114.987 20.4674C115.111 20.4939 115.222 20.5619 115.302 20.66C115.381 20.7581 115.425 20.8805 115.426 21.0069C115.427 21.1334 115.384 21.2563 115.306 21.3554C115.227 21.4545 115.117 21.5239 114.994 21.5521L111.865 22.0826C111.37 22.1667 110.914 22.4048 110.561 22.7632C110.209 23.1215 109.979 23.5818 109.904 24.0785L109.261 28.3326C109.235 28.456 109.169 28.567 109.072 28.6475C108.975 28.7279 108.853 28.7731 108.728 28.7755C108.602 28.7779 108.479 28.7375 108.379 28.6608C108.279 28.5841 108.208 28.4757 108.178 28.3535L107.285 23.7187C107.189 23.2227 106.939 22.7697 106.569 22.4252C106.2 22.0807 105.73 21.8625 105.229 21.8021L103.179 21.5535C103.053 21.5287 102.939 21.4607 102.857 21.3613C102.775 21.2619 102.73 21.1371 102.73 21.0083C102.73 20.8796 102.775 20.7548 102.857 20.6554C102.939 20.5559 103.053 20.488 103.179 20.4632L105.148 20.2354C105.651 20.1789 106.123 19.9641 106.496 19.6222C106.869 19.2802 107.124 18.8287 107.223 18.3326L108.196 13.4604C108.228 13.3418 108.299 13.2373 108.397 13.1632C108.495 13.0891 108.615 13.0495 108.737 13.0508C108.86 13.0521 108.979 13.0941 109.076 13.1702C109.172 13.2463 109.241 13.3523 109.271 13.4715Z" fill="#50C62C"/>
</svg>
