<?xml version="1.0" standalone="no"?>
<!DOCTYPE svg PUBLIC "-//W3C//DTD SVG 20010904//EN"
 "http://www.w3.org/TR/2001/REC-SVG-20010904/DTD/svg10.dtd">
<svg version="1.0" xmlns="http://www.w3.org/2000/svg"
 width="484.000000pt" height="484.000000pt" viewBox="0 0 484.000000 484.000000"
 preserveAspectRatio="xMidYMid meet">
<metadata>
Created by potrace 1.14, written by Peter Selinger 2001-2017
</metadata>
<g transform="translate(0.000000,484.000000) scale(0.100000,-0.100000)"
fill="#000000" stroke="none">
<path d="M2230 4299 c-117 -9 -173 -16 -255 -29 -38 -7 -85 -14 -104 -16 -19
-3 -37 -6 -41 -9 -4 -2 -22 -7 -41 -10 -19 -3 -86 -20 -149 -37 -559 -152
-1051 -490 -1327 -911 -88 -135 -195 -375 -219 -492 -2 -11 -8 -42 -14 -70
-25 -123 -29 -171 -26 -335 4 -188 5 -195 41 -342 169 -676 810 -1235 1645
-1432 58 -14 121 -27 140 -30 19 -3 44 -7 55 -10 18 -3 94 -14 155 -22 80 -10
211 -18 325 -18 125 0 352 11 364 18 3 2 35 7 71 10 90 10 281 51 422 92 532
153 1012 490 1274 894 66 101 68 105 104 180 85 175 122 295 156 515 8 54 9
300 0 350 -21 126 -29 167 -48 235 -72 265 -238 544 -447 750 -251 249 -530
422 -906 563 -124 46 -418 118 -543 132 -27 3 -57 7 -68 9 -87 17 -426 26
-564 15z m490 -202 c14 -3 48 -8 75 -11 345 -39 741 -179 1028 -363 224 -143
437 -350 564 -546 98 -151 168 -317 205 -490 31 -144 31 -390 0 -529 -38 -173
-109 -348 -190 -470 -15 -23 -31 -48 -37 -57 -70 -112 -249 -298 -395 -410
-249 -192 -595 -351 -918 -421 -133 -30 -128 -29 -191 -36 -31 -3 -59 -8 -62
-10 -29 -17 -496 -26 -634 -12 -483 50 -919 213 -1264 473 -225 170 -421 404
-527 630 -31 66 -82 207 -90 248 -2 10 -5 26 -8 35 -6 19 -15 79 -25 162 -13
109 -4 276 24 422 12 62 68 216 111 304 226 461 701 822 1304 993 158 44 295
70 495 91 74 8 492 5 535 -3z"/>
<path d="M3130 3520 c-5 -130 -28 -219 -86 -335 -46 -93 -71 -132 -78 -124 -2
2 -7 24 -11 48 -25 167 -144 297 -325 352 -317 96 -711 28 -956 -167 -82 -66
-136 -141 -164 -232 -23 -74 -29 -190 -11 -234 6 -16 7 -28 2 -28 -17 0 -128
80 -168 121 -76 79 -145 221 -145 296 0 13 -4 20 -9 17 -14 -8 -10 -123 5
-179 27 -102 79 -181 184 -282 182 -175 370 -243 682 -248 371 -6 701 114 925
339 93 93 169 225 191 331 2 11 6 31 9 45 16 75 -4 235 -35 289 -8 13 -10 12
-10 -9z m-645 -135 c244 -49 412 -188 431 -354 l5 -48 -67 -62 c-45 -41 -73
-60 -83 -56 -80 32 -176 47 -306 48 -214 3 -326 -20 -505 -101 -46 -21 -174
-102 -178 -113 -6 -16 -45 -9 -112 19 -91 38 -100 44 -106 78 -26 138 14 253
126 364 113 112 285 195 465 223 79 13 272 14 330 2z m229 -551 c17 -10 15
-14 -28 -39 -94 -55 -296 -120 -436 -141 -49 -7 -313 -7 -345 0 -11 2 -32 5
-47 5 -40 1 -34 16 18 47 97 57 259 110 404 132 81 13 411 9 434 -4z"/>
</g>
</svg>
