<svg height="200px" width="200px" version="1.1" id="Layer_1" xmlns="http://www.w3.org/2000/svg" xmlns:xlink="http://www.w3.org/1999/xlink" viewBox="0 0 512 512" xml:space="preserve" fill="#000000"><g id="SVGRepo_bgCarrier" stroke-width="0"></g><g id="SVGRepo_tracerCarrier" stroke-linecap="round" stroke-linejoin="round"></g><g id="SVGRepo_iconCarrier"> <path style="fill:#9B9DA1;" d="M448,290.133H260.267c-32.938,0-59.733,26.797-59.733,59.733v153.6c0,4.713,3.821,8.533,8.533,8.533 H499.2c4.713,0,8.533-3.821,8.533-8.533v-153.6C507.733,316.93,480.938,290.133,448,290.133z"></path> <path style="fill:#88898E;" d="M226.133,503.467v-153.6c0-32.937,26.796-59.733,59.733-59.733h-25.6 c-32.938,0-59.733,26.797-59.733,59.733v153.6c0,4.713,3.821,8.533,8.533,8.533h25.6C229.954,512,226.133,508.179,226.133,503.467z"></path> <g> <path style="fill:#E5563C;" d="M417.069,355.842L388.267,332.8v-42.667h42.667v59.045 C430.933,356.334,422.657,360.311,417.069,355.842z"></path> <path style="fill:#E5563C;" d="M291.198,355.842L320,332.8v-42.667h-42.667v59.045C277.333,356.334,285.61,360.311,291.198,355.842 z"></path> </g> <g> <path style="fill:#4C4E55;" d="M354.133,401.067c-0.556,0-1.12-0.053-1.665-0.171c-0.544-0.107-1.088-0.267-1.6-0.48 c-0.511-0.213-1.012-0.48-1.472-0.789c-0.468-0.309-0.907-0.672-1.301-1.056c-0.384-0.395-0.747-0.832-1.056-1.301 c-0.309-0.459-0.576-0.96-0.789-1.472c-0.212-0.512-0.373-1.056-0.479-1.6c-0.117-0.544-0.171-1.109-0.171-1.664 c0-2.251,0.907-4.448,2.496-6.037c0.395-0.395,0.832-0.747,1.301-1.056c0.46-0.309,0.96-0.576,1.472-0.789 c0.512-0.213,1.056-0.373,1.6-0.48c1.099-0.224,2.23-0.224,3.328,0c0.544,0.107,1.089,0.267,1.6,0.48 c0.512,0.213,1.013,0.48,1.472,0.789c0.469,0.309,0.908,0.661,1.302,1.056c1.588,1.589,2.496,3.787,2.496,6.037 c0,0.555-0.053,1.12-0.171,1.664c-0.107,0.544-0.267,1.088-0.48,1.6c-0.213,0.512-0.48,1.013-0.789,1.472 c-0.309,0.469-0.66,0.907-1.055,1.301c-0.395,0.384-0.832,0.747-1.302,1.056c-0.459,0.309-0.959,0.576-1.472,0.789 c-0.511,0.213-1.056,0.373-1.6,0.48C355.253,401.013,354.688,401.067,354.133,401.067z"></path> <path style="fill:#4C4E55;" d="M354.133,435.2c-0.556,0-1.12-0.053-1.665-0.171c-0.544-0.107-1.088-0.267-1.6-0.48 c-0.511-0.213-1.012-0.48-1.472-0.789c-0.468-0.309-0.907-0.661-1.301-1.056c-1.589-1.589-2.496-3.787-2.496-6.037 c0-0.555,0.053-1.12,0.171-1.664c0.107-0.544,0.267-1.088,0.479-1.6c0.213-0.512,0.48-1.013,0.789-1.472 c0.309-0.469,0.672-0.907,1.056-1.301c0.395-0.384,0.832-0.747,1.301-1.056c0.46-0.309,0.96-0.576,1.472-0.789 c0.512-0.213,1.056-0.373,1.6-0.48c1.099-0.224,2.23-0.224,3.328,0c0.544,0.107,1.089,0.267,1.6,0.48 c0.512,0.213,1.013,0.48,1.472,0.789c0.469,0.309,0.908,0.672,1.302,1.056c0.395,0.395,0.746,0.832,1.055,1.301 c0.309,0.459,0.576,0.96,0.789,1.472c0.213,0.512,0.374,1.056,0.48,1.6c0.117,0.544,0.171,1.109,0.171,1.664 c0,2.251-0.908,4.448-2.496,6.037c-0.395,0.395-0.832,0.747-1.302,1.056c-0.459,0.309-0.959,0.576-1.472,0.789 c-0.511,0.213-1.056,0.373-1.6,0.48C355.253,435.147,354.688,435.2,354.133,435.2z"></path> <path style="fill:#4C4E55;" d="M354.133,469.333c-0.556,0-1.12-0.053-1.665-0.171c-0.544-0.107-1.088-0.267-1.6-0.48 c-0.511-0.213-1.012-0.48-1.472-0.789c-0.468-0.309-0.907-0.661-1.301-1.056c-1.589-1.589-2.496-3.787-2.496-6.037 c0-0.555,0.053-1.12,0.171-1.664c0.107-0.544,0.267-1.088,0.479-1.6c0.213-0.512,0.48-1.013,0.789-1.472 c0.309-0.469,0.672-0.907,1.056-1.301c0.395-0.395,0.832-0.747,1.301-1.056c0.46-0.309,0.96-0.576,1.472-0.789 c0.512-0.213,1.056-0.373,1.6-0.48c1.099-0.224,2.23-0.224,3.328,0c0.544,0.107,1.089,0.267,1.6,0.48 c0.512,0.213,1.013,0.48,1.472,0.789c0.469,0.309,0.908,0.661,1.302,1.056c0.395,0.395,0.746,0.832,1.055,1.301 c0.309,0.459,0.576,0.96,0.789,1.472c0.213,0.512,0.374,1.056,0.48,1.6c0.117,0.544,0.171,1.109,0.171,1.664 c0,2.251-0.908,4.448-2.496,6.037c-0.395,0.395-0.832,0.747-1.302,1.056c-0.459,0.309-0.959,0.576-1.472,0.789 c-0.511,0.213-1.056,0.373-1.6,0.48C355.253,469.28,354.688,469.333,354.133,469.333z"></path> </g> <path style="fill:#E5563C;" d="M456.533,384H396.8c-4.713,0-8.533,3.821-8.533,8.533v38.4c0,21.174,17.226,38.4,38.4,38.4 s38.4-17.226,38.4-38.4v-38.4C465.067,387.821,461.246,384,456.533,384z"></path> <path style="fill:#CF442B;" d="M405.333,430.933v-38.4c0-4.713,3.821-8.533,8.533-8.533H396.8c-4.713,0-8.533,3.821-8.533,8.533 v38.4c0,21.174,17.226,38.4,38.4,38.4c2.933,0,5.787-0.341,8.533-0.967C418.122,464.474,405.333,449.174,405.333,430.933z"></path> <path style="fill:#FDE5A2;" d="M379.733,264.533h-51.2c-4.713,0-8.533,3.821-8.533,8.533V332.8c0,2.853,1.426,5.518,3.801,7.1 l25.6,17.067c2.836,1.891,6.63,1.891,9.467,0l25.6-17.067c2.374-1.582,3.801-4.246,3.801-7.1v-59.733 C388.267,268.354,384.446,264.533,379.733,264.533z"></path> <circle style="fill:#FDDD85;" cx="473.6" cy="196.267" r="25.6"></circle> <g> <circle style="fill:#FDE5A2;" cx="234.667" cy="196.267" r="25.6"></circle> <circle style="fill:#FDE5A2;" cx="354.133" cy="153.6" r="128"></circle> </g> <path style="fill:#FDDD85;" d="M379.733,273.067c-70.692,0-128-57.308-128-128c0-51.749,30.711-96.321,74.9-116.495 c-57.474,12.583-100.5,63.777-100.5,125.028c0,70.692,57.308,128,128,128c18.944,0,36.924-4.119,53.1-11.505 C398.374,272.035,389.174,273.067,379.733,273.067z"></path> <g> <path style="fill:#4C4E55;" d="M363.733,238.933h-19.2c-4.713,0-8.533-3.821-8.533-8.533c0-4.713,3.821-8.533,8.533-8.533h19.2 c4.713,0,8.533,3.821,8.533,8.533C372.267,235.113,368.446,238.933,363.733,238.933z"></path> <path style="fill:#4C4E55;" d="M316,209.067c-4.713,0-8.533-3.821-8.533-8.533c0-2.499-2.033-4.533-4.533-4.533 s-4.533,2.034-4.533,4.533c0,4.713-3.821,8.533-8.533,8.533c-4.713,0-8.533-3.821-8.533-8.533c0-11.91,9.69-21.6,21.6-21.6 s21.6,9.69,21.6,21.6C324.533,205.246,320.713,209.067,316,209.067z"></path> <path style="fill:#4C4E55;" d="M418.4,209.067c-4.713,0-8.533-3.821-8.533-8.533c0-2.499-2.033-4.533-4.533-4.533 c-2.5,0-4.533,2.034-4.533,4.533c0,4.713-3.821,8.533-8.533,8.533s-8.533-3.821-8.533-8.533c0-11.91,9.69-21.6,21.6-21.6 c11.91,0,21.6,9.69,21.6,21.6C426.933,205.246,423.113,209.067,418.4,209.067z"></path> </g> <path style="fill:#E5563C;" d="M413.867,0H294.4c-42.348,0-76.8,34.452-76.8,76.8V128c0,4.713,3.821,8.533,8.533,8.533h256 c4.713,0,8.533-3.821,8.533-8.533V76.8C490.667,34.452,456.214,0,413.867,0z"></path> <path style="fill:#CF442B;" d="M243.2,128V76.8C243.2,34.452,277.652,0,320,0h-25.6c-42.348,0-76.8,34.452-76.8,76.8V128 c0,4.713,3.821,8.533,8.533,8.533h25.6C247.021,136.533,243.2,132.713,243.2,128z"></path> <circle style="fill:#606268;" cx="354.133" cy="68.267" r="25.6"></circle> <circle style="fill:#D7D8D9;" cx="354.133" cy="68.267" r="17.067"></circle> <g> <path style="fill:#CF442B;" d="M430.933,51.2H396.8c-4.713,0-8.533-3.821-8.533-8.533s3.821-8.533,8.533-8.533h34.133 c4.713,0,8.533,3.821,8.533,8.533S435.646,51.2,430.933,51.2z"></path> <path style="fill:#CF442B;" d="M413.867,76.8H396.8c-4.713,0-8.533-3.821-8.533-8.533s3.821-8.533,8.533-8.533h17.067 c4.713,0,8.533,3.821,8.533,8.533S418.579,76.8,413.867,76.8z"></path> <path style="fill:#CF442B;" d="M405.333,102.4H396.8c-4.713,0-8.533-3.821-8.533-8.533s3.821-8.533,8.533-8.533h8.533 c4.713,0,8.533,3.821,8.533,8.533S410.046,102.4,405.333,102.4z"></path> <path style="fill:#CF442B;" d="M311.467,51.2h-34.133c-4.713,0-8.533-3.821-8.533-8.533s3.821-8.533,8.533-8.533h34.133 c4.713,0,8.533,3.821,8.533,8.533S316.179,51.2,311.467,51.2z"></path> <path style="fill:#CF442B;" d="M311.467,76.8H294.4c-4.713,0-8.533-3.821-8.533-8.533s3.821-8.533,8.533-8.533h17.067 c4.713,0,8.533,3.821,8.533,8.533S316.179,76.8,311.467,76.8z"></path> <path style="fill:#CF442B;" d="M311.467,102.4h-8.533c-4.713,0-8.533-3.821-8.533-8.533s3.821-8.533,8.533-8.533h8.533 c4.713,0,8.533,3.821,8.533,8.533S316.179,102.4,311.467,102.4z"></path> </g> <path style="fill:#AFB0B4;" d="M482.133,119.467h-256c-4.713,0-8.533,3.821-8.533,8.533v8.533c0,23.526,19.14,42.667,42.667,42.667 H448c23.526,0,42.667-19.14,42.667-42.667V128C490.667,123.287,486.846,119.467,482.133,119.467z"></path> <path style="fill:#9B9DA1;" d="M243.2,136.533V128c0-4.713,3.821-8.533,8.533-8.533h-25.6c-4.713,0-8.533,3.821-8.533,8.533v8.533 c0,23.526,19.14,42.667,42.667,42.667h25.6C262.34,179.2,243.2,160.06,243.2,136.533z"></path> <path style="fill:#F2C127;" d="M251.733,256H166.4c0,0-3.821,34.133-8.533,34.133h-51.2c-4.713,0-8.533-34.133-8.533-34.133H12.8 c-4.713,0-8.533,3.821-8.533,8.533V435.2c0,4.713,3.821,8.533,8.533,8.533h238.933c4.713,0,8.533-3.821,8.533-8.533V264.533 C260.267,259.821,256.446,256,251.733,256z"></path> <path style="fill:#E1A527;" d="M29.867,435.2V264.533c0-4.713,3.821-8.533,8.533-8.533H12.8c-4.713,0-8.533,3.821-8.533,8.533V435.2 c0,4.713,3.821,8.533,8.533,8.533h25.6C33.687,443.733,29.867,439.913,29.867,435.2z"></path> <path style="fill:#EBEBEC;" d="M166.4,256H98.133v93.867c0,4.713,3.821,8.533,8.533,8.533h51.2c4.713,0,8.533-3.821,8.533-8.533V256 z"></path> <g> <path style="fill:#606268;" d="M55.467,409.6c-4.713,0-8.533-3.821-8.533-8.533V384c0-4.713,3.821-8.533,8.533-8.533 S64,379.287,64,384v17.067C64,405.779,60.179,409.6,55.467,409.6z"></path> <path style="fill:#606268;" d="M81.067,409.6c-4.713,0-8.533-3.821-8.533-8.533V384c0-4.713,3.821-8.533,8.533-8.533 S89.6,379.287,89.6,384v17.067C89.6,405.779,85.779,409.6,81.067,409.6z"></path> <path style="fill:#606268;" d="M123.733,409.6c-4.713,0-8.533-3.821-8.533-8.533V384c0-4.713,3.821-8.533,8.533-8.533 c4.713,0,8.533,3.821,8.533,8.533v17.067C132.267,405.779,128.446,409.6,123.733,409.6z"></path> <path style="fill:#606268;" d="M149.333,409.6c-4.713,0-8.533-3.821-8.533-8.533V384c0-4.713,3.821-8.533,8.533-8.533 c4.713,0,8.533,3.821,8.533,8.533v17.067C157.867,405.779,154.046,409.6,149.333,409.6z"></path> <path style="fill:#606268;" d="M174.933,409.6c-4.713,0-8.533-3.821-8.533-8.533V384c0-4.713,3.821-8.533,8.533-8.533 c4.713,0,8.533,3.821,8.533,8.533v17.067C183.467,405.779,179.646,409.6,174.933,409.6z"></path> <path style="fill:#606268;" d="M209.067,409.6c-4.713,0-8.533-3.821-8.533-8.533V384c0-4.713,3.821-8.533,8.533-8.533 c4.713,0,8.533,3.821,8.533,8.533v17.067C217.6,405.779,213.779,409.6,209.067,409.6z"></path> <path style="fill:#606268;" d="M232.167,326.766l-17.067-17.067c-3.333-3.332-8.735-3.332-12.068,0l-17.067,17.067 c-3.332,3.332-3.332,8.735,0,12.067c3.333,3.332,8.735,3.332,12.068,0l2.499-2.499v13.533c0,4.713,3.821,8.533,8.533,8.533 c4.713,0,8.533-3.821,8.533-8.533v-13.532l2.499,2.499c1.667,1.666,3.85,2.499,6.034,2.499s4.368-0.833,6.034-2.499 C235.5,335.502,235.5,330.098,232.167,326.766z"></path> <path style="fill:#606268;" d="M78.567,326.766l-17.067-17.067c-3.333-3.332-8.735-3.332-12.068,0l-17.067,17.067 c-3.332,3.332-3.332,8.735,0,12.067c3.333,3.332,8.735,3.332,12.068,0l2.499-2.498v13.532c0,4.713,3.821,8.533,8.533,8.533 S64,354.579,64,349.867v-13.532l2.499,2.499c1.666,1.666,3.85,2.499,6.034,2.499c2.185,0,4.368-0.833,6.034-2.499 C81.9,335.502,81.9,330.098,78.567,326.766z"></path> </g> <path style="fill:#FDE5A2;" d="M166.4,435.2H98.133c-9.41,0-17.067,7.657-17.067,17.067v25.6c0,14.116,11.485,25.6,25.6,25.6h51.2 c14.115,0,25.6-11.484,25.6-25.6v-25.6C183.467,442.857,175.81,435.2,166.4,435.2z"></path> <path style="fill:#FDDD85;" d="M166.4,494.933h-59.733c-9.425,0-17.067-7.641-17.067-17.067v-34.133c0-2.5,0.55-4.867,1.516-7.007 c-5.916,2.684-10.049,8.633-10.049,15.54v25.6c0,14.116,11.485,25.6,25.6,25.6h51.2c9.232,0,17.335-4.913,21.84-12.26 C175.829,493.57,171.274,494.933,166.4,494.933z"></path> <g> <path style="fill:#FDD042;" d="M132.267,477.867c4.713,0,8.533-3.821,8.533-8.533V435.2h-17.067v34.133 C123.733,474.047,127.554,477.867,132.267,477.867z"></path> <path style="fill:#FDD042;" d="M153.6,477.867c4.713,0,8.533-3.821,8.533-8.533V435.2h-17.067v34.133 C145.067,474.047,148.887,477.867,153.6,477.867z"></path> <path style="fill:#FDD042;" d="M110.933,477.867c4.713,0,8.533-3.821,8.533-8.533V435.2H102.4v34.133 C102.4,474.047,106.221,477.867,110.933,477.867z"></path> </g> </g></svg>
